<?xml version="1.0" encoding="iso-8859-1"?>
<!-- Generator: Adobe Illustrator 18.1.1, SVG Export Plug-In . SVG Version: 6.00 Build 0)  -->
<svg version="1.1" id="Capa_1" xmlns="http://www.w3.org/2000/svg" xmlns:xlink="http://www.w3.org/1999/xlink" x="0px" y="0px"
	 viewBox="0 0 18.908 18.908" style="enable-background:new 0 0 18.908 18.908;" xml:space="preserve">
<g>
	<path style="fill:#030104;" d="M18.524,9.015L13.33,7.588l1.764-3.101c0.108-0.19,0.076-0.429-0.078-0.583
		c-0.155-0.155-0.395-0.187-0.584-0.079l-3.083,1.754L9.914,0.357C9.857,0.146,9.665,0,9.446,0c-0.218,0-0.41,0.146-0.468,0.357
		L7.553,5.542L4.539,3.828C4.349,3.719,4.11,3.751,3.955,3.907C3.801,4.061,3.768,4.3,3.877,4.49l1.725,3.033l-5.22,1.434
		c-0.211,0.058-0.357,0.25-0.357,0.469s0.146,0.41,0.357,0.468l5.178,1.423l-1.747,3.07c-0.109,0.191-0.076,0.43,0.078,0.584
		c0.155,0.154,0.395,0.188,0.584,0.08l3.021-1.719l1.434,5.221c0.058,0.209,0.25,0.355,0.468,0.355c0.219,0,0.411-0.146,0.469-0.355
		l1.437-5.232l3.1,1.764c0.075,0.041,0.158,0.063,0.241,0.063c0.003,0,0.005,0,0.009,0c0.269,0,0.485-0.217,0.485-0.486
		c0-0.119-0.043-0.229-0.115-0.314l-1.689-2.969l5.19-1.426c0.211-0.058,0.357-0.25,0.357-0.468S18.735,9.073,18.524,9.015z
		 M0.643,9.423l0.12-0.033l8.495,0.126l-1.964,1.735L0.643,9.423z M7.618,7.267l1.827-6.65l0.033,0.12L9.353,9.232L7.618,7.267z
		 M9.453,9.455L9.453,9.455L9.419,9.42l0,0L9.453,9.455z M9.486,9.678l1.735,1.963l-1.828,6.65L9.36,18.172L9.486,9.678z
		 M14.478,14.536l-2.879-2.965l-0.089,0.025l1.171-0.322l1.885,3.313L14.478,14.536z M18.142,9.519L9.647,9.393l1.964-1.734
		l6.65,1.827L18.142,9.519z M14.597,4.323l-0.05,0.088l-3.003,2.915l0.011,0.042l-0.313-1.137L14.597,4.323z M7.347,7.327
		l-1.09,0.299l-1.877-3.3l0.088,0.05L7.336,7.33L7.347,7.327L7.347,7.327z M7.596,12.681L4.309,14.55l0.051-0.088l2.941-2.855
		L7.596,12.681z"/>
</g>
<g>
</g>
<g>
</g>
<g>
</g>
<g>
</g>
<g>
</g>
<g>
</g>
<g>
</g>
<g>
</g>
<g>
</g>
<g>
</g>
<g>
</g>
<g>
</g>
<g>
</g>
<g>
</g>
<g>
</g>
</svg>
